# xmcd CD database file
#
# Track frame offsets:
#	150
#	16052
#	40864
#	52467
#	68158
#	89484
#	110120
#	124425
#	151866
#	167893
#	191074
#	212234
#
# Disc length: 3105 seconds
#
# Revision: 0
# Processed by: cddbd v1.5.2PL0 Copyright (c) Steve Scherf et al.
# Submitted via: CDex 1.51
#
DISCID=b30c1f0c
DTITLE=Viktoria Tolstoy - My Russian Soul
DYEAR=2008
DGENRE=Jazz
TTITLE0=Viktoria Tolstoy - Home
TTITLE1=Viktoria Tolstoy - Word By Word
TTITLE2=Viktoria Tolstoy - The Curtain Falls
TTITLE3=Viktoria Tolstoy - Little Pretty
TTITLE4=Viktoria Tolstoy - Our Stories
TTITLE5=Viktoria Tolstoy - Stranger In Paradise
TTITLE6=Viktoria Tolstoy - You can go Home again
TTITLE7=Viktoria Tolstoy - Silent Rhapsody
TTITLE8=Viktoria Tolstoy - Although you´re gone
TTITLE9=Viktoria Tolstoy - Our Man
TTITLE10=Viktoria Tolstoy - No News
TTITLE11=Viktoria Tolstoy - Aftermath
EXTD=YEAR: 2008
EXTT0=
EXTT1=
EXTT2=
EXTT3=
EXTT4=
EXTT5=
EXTT6=
EXTT7=
EXTT8=
EXTT9=
EXTT10=
EXTT11=
PLAYORDER=
